<svg width="94" height="17" viewBox="0 0 94 17" fill="none" xmlns="http://www.w3.org/2000/svg">
<path d="M11.2734 11.2812C11.9609 10.5938 12.3047 9.76562 12.3047 8.79688C12.3047 7.82812 11.9609 7 11.2734 6.3125C10.5859 5.625 9.75781 5.28125 8.78906 5.28125C7.82031 5.28125 6.99219 5.625 6.30469 6.3125C5.61719 7 5.27344 7.82812 5.27344 8.79688C5.27344 9.76562 5.61719 10.5938 6.30469 11.2812C6.99219 11.9688 7.82031 12.3125 8.78906 12.3125C9.75781 12.3125 10.5859 11.9688 11.2734 11.2812ZM8.78906 17C6.52344 17 4.58984 16.1992 2.98828 14.5977C1.38672 12.9961 0.585938 11.0625 0.585938 8.79688C0.585938 6.53125 1.38672 4.59766 2.98828 2.99609C4.58984 1.39453 6.52344 0.59375 8.78906 0.59375C11.0547 0.59375 12.9883 1.39453 14.5898 2.99609C16.1914 4.59766 16.9922 6.53125 16.9922 8.79688C16.9922 10.0781 16.7383 11.25 16.2305 12.3125H18.1641V17H8.78906ZM18.7266 8.79688V0.59375H23.4141V8.79688C23.4141 11.1406 24.1953 12.3125 25.7578 12.3125C27.3203 12.3125 28.1016 11.1406 28.1016 8.79688V0.59375H32.7891V8.79688C32.7891 14.2656 30.4453 17 25.7578 17C21.0703 17 18.7266 14.2656 18.7266 8.79688ZM37.1602 15.8281L36.7734 17H32.0859L37.9453 0.59375H42.6328L48.4922 17H43.8047L43.418 15.8281H37.1602ZM41.8477 11.1406L40.2891 6.45312L38.7305 11.1406H41.8477ZM54.3516 8.79688V17H49.6641V0.59375H54.3516L60.2109 8.79688V0.59375H64.8984V17H60.2109L54.3516 8.79688ZM75.4453 17H70.7578V5.28125H66.0703V0.59375H80.1328V5.28125H75.4453V17ZM82.2773 15.8281L81.8906 17H77.2031L83.0625 0.59375H87.75L93.6094 17H88.9219L88.5352 15.8281H82.2773ZM86.9648 11.1406L85.4062 6.45312L83.8477 11.1406H86.9648Z" fill="white"/>
</svg>
