{"asset":{"generator":"Khronos glTF Spline I/O v0.0.1","version":"2.0"},"scenes":[{"nodes":[0]}],"nodes":[{"name":"","children":[1,2,3,18],"matrix":[0.01,0,0,0,0,0.01,0,0,0,0,0.01,0,0,0,0,1]},{"name":"","camera":0,"translation":[247.46178735285548,69.32596540837635,1021.9637668092195],"rotation":[-0.046508423920511466,0.11876570548130473,0.005569179223538106,0.9918168469776737]},{"name":"Directional Light","translation":[451.99351425105556,300,110.42011776321306],"rotation":[-0.5575061993951805,0.299099611644731,-0.36611188905494046,0.6824136169820583],"extensions":{"KHR_lights_punctual":{"light":0}}},{"name":"ROCKET","matrix":[1,0,0,0,0,1,0,0,0,0,1,0,0,-376.0232278217966,0,1],"children":[4,9,10,11,12,13,14,15,16,17]},{"name":"","matrix":[0.76009511234221,0,0.6498118344516994,0,0,1,0,0,-0.6498118344516994,0,0.76009511234221,0,4.666555128583198,278.69771664701074,2.590458474717837e-16,1],"children":[5,6,7,8]},{"name":"","matrix":[-2.220446049250313e-16,0,-1,0,0,1,0,0,1,0,-2.220446049250313e-16,0,-7.771561172376096e-15,0,-35,1],"mesh":0},{"name":"","matrix":[-1,0,1.2246467991473532e-16,0,0,1,0,0,-1.2246467991473532e-16,0,-1,0,-35,0,4.2862637970157365e-15,1],"mesh":0},{"name":"","matrix":[2.220446049250313e-16,0,1,0,0,1,0,0,-1,0,2.220446049250313e-16,0,7.771561172376096e-15,0,35,1],"mesh":0},{"name":"","matrix":[1,0,0,0,0,1,0,0,0,0,1,0,35,0,0,1],"mesh":0},{"name":"BODY","matrix":[-4.980973490458729,5.589558988820621e-16,0.4357787137382898,0,6.099933241728101e-16,5,5.589558988820619e-16,0,-0.4357787137382898,6.099933241728102e-16,-4.980973490458729,0,0,376.0232278217965,0,0.9999999999999999],"mesh":1},{"name":"Cylinder","matrix":[2.2204460492503126e-16,1.224646799147353e-16,0.9999999999999998,0,0,-0.9999999999999996,1.2246467991473527e-16,0,0.9999999999999998,-2.4651903288156613e-32,-2.2204460492503126e-16,0,-0.37150003490538347,141.63650907179644,1.0818945309439416,1],"mesh":2},{"name":"Bottom2","matrix":[2.2204460492503126e-16,1.224646799147353e-16,0.9999999999999998,0,0,-0.9999999999999996,1.2246467991473527e-16,0,0.9999999999999998,-2.4651903288156613e-32,-2.2204460492503126e-16,0,-0.37150003490538347,125.37242801443503,1.0818945309439436,1],"mesh":3},{"name":"Fins","matrix":[0.76009511234221,0,0.6498118344516994,0,0,1,0,0,-0.6498118344516994,0,0.76009511234221,0,4.666555128583198,278.69771664701074,2.590458474717837e-16,1],"mesh":0},{"name":"Cap","matrix":[0.8586484592240856,0,0,0,0,1,0,0,0,0,1,0,1.1846806319645111,465.2564598554456,34.173304067646995,1],"mesh":4},{"name":"Fire","matrix":[1.999632378874497,0,0,0,0,5.39144870845997,0,0,0,0,1.9707314288893178,0,1.106457199644865,-133.1259633395459,1.0110457419941667,1],"mesh":5},{"name":"Blur effect","matrix":[3,0,0,0,0,7,0,0,0,0,3,0,1.754435027947693,-189.66040433546846,1.0110457419941667,1],"mesh":6},{"name":"Point Light","translation":[0,59.62286325643191,113.79236835955834],"extensions":{"KHR_lights_punctual":{"light":1}}},{"name":"Point Light 2","translation":[0,59.62286325643191,-225.23783697382243],"extensions":{"KHR_lights_punctual":{"light":2}}},{"name":"Camera","camera":1,"translation":[121.97907044665035,-238.14032840611267,1028.7252056468892],"rotation":[0.06613131089756041,0.05156740503081339,-0.0034222951647016136,0.9964716455339628]}],"cameras":[{"type":"orthographic","orthographic":{"xmag":1512,"ymag":814,"zfar":100000,"znear":-100000}},{"type":"orthographic","orthographic":{"xmag":1512,"ymag":814,"zfar":100000,"znear":-100000}}],"meshes":[{"primitives":[{"attributes":{"POSITION":1,"NORMAL":2,"TEXCOORD_0":3},"indices":0}]},{"primitives":[{"attributes":{"POSITION":5,"TEXCOORD_0":6,"NORMAL":7},"indices":4}]},{"primitives":[{"attributes":{"POSITION":9,"NORMAL":10,"TEXCOORD_0":11},"indices":8}]},{"primitives":[{"attributes":{"POSITION":13,"NORMAL":14,"TEXCOORD_0":15},"indices":12}]},{"primitives":[{"attributes":{"POSITION":17,"NORMAL":18,"TEXCOORD_0":19},"indices":16}]},{"primitives":[{"attributes":{"POSITION":21,"TEXCOORD_0":22,"NORMAL":23},"indices":20}]},{"primitives":[{"attributes":{"POSITION":25,"TEXCOORD_0":26,"NORMAL":27},"indices":24}]}],"buffers":[{"uri":"data:application/octet-stream;base64,","byteLength":99144},{"uri":"data:application/octet-stream;base64,","byteLength":184352},{"uri":"data:application/octet-stream;base64,","byteLength":13952},{"uri":"data:application/octet-stream;base64,","byteLength":22784},{"uri":"data:application/octet-stream;base64,","byteLength":183584},{"uri":"data:application/octet-stream;base64,","byteLength":184352},{"uri":"data:application/octet-stream;base64,","byteLength":184352}],"bufferViews":[{"buffer":0,"byteOffset":0,"byteLength":16008,"target":34963},{"buffer":0,"byteOffset":16008,"byteLength":27712,"target":34962},{"buffer":0,"byteOffset":43720,"byteLength":27712,"target":34962},{"buffer":0,"byteOffset":71432,"byteLength":27712,"target":34962},{"buffer":1,"byteOffset":0,"byteLength":49152,"target":34963},{"buffer":1,"byteOffset":49152,"byteLength":50700,"target":34962},{"buffer":1,"byteOffset":99852,"byteLength":33800,"target":34962},{"buffer":1,"byteOffset":133652,"byteLength":50700,"target":34962},{"buffer":2,"byteOffset":0,"byteLength":1536,"target":34963},{"buffer":2,"byteOffset":1536,"byteLength":4656,"target":34962},{"buffer":2,"byteOffset":6192,"byteLength":4656,"target":34962},{"buffer":2,"byteOffset":10848,"byteLength":3104,"target":34962},{"buffer":3,"byteOffset":0,"byteLength":6144,"target":34963},{"buffer":3,"byteOffset":6144,"byteLength":6240,"target":34962},{"buffer":3,"byteOffset":12384,"byteLength":6240,"target":34962},{"buffer":3,"byteOffset":18624,"byteLength":4160,"target":34962},{"buffer":4,"byteOffset":0,"byteLength":48384,"target":34963},{"buffer":4,"byteOffset":48384,"byteLength":50700,"target":34962},{"buffer":4,"byteOffset":99084,"byteLength":50700,"target":34962},{"buffer":4,"byteOffset":149784,"byteLength":33800,"target":34962},{"buffer":5,"byteOffset":0,"byteLength":49152,"target":34963},{"buffer":5,"byteOffset":49152,"byteLength":50700,"target":34962},{"buffer":5,"byteOffset":99852,"byteLength":33800,"target":34962},{"buffer":5,"byteOffset":133652,"byteLength":50700,"target":34962},{"buffer":6,"byteOffset":0,"byteLength":49152,"target":34963},{"buffer":6,"byteOffset":49152,"byteLength":50700,"target":34962},{"buffer":6,"byteOffset":99852,"byteLength":33800,"target":34962},{"buffer":6,"byteOffset":133652,"byteLength":50700,"target":34962}],"accessors":[{"bufferView":0,"byteOffset":0,"componentType":5125,"count":4002,"type":"SCALAR","min":[0],"max":[865]},{"bufferView":1,"byteOffset":0,"componentType":5126,"count":866,"type":"VEC3","min":[0,-157.00390625,0],"max":[97.7734375,0.4609375,4]},{"bufferView":2,"byteOffset":0,"componentType":5126,"count":866,"type":"VEC3","min":[-0.9999833106994629,-0.9785779118537903,-1],"max":[0.9999875426292419,0.9998023509979248,1]},{"bufferView":3,"byteOffset":0,"componentType":5126,"count":866,"type":"VEC2","min":[0,0],"max":[1,1]},{"bufferView":4,"byteOffset":0,"componentType":5123,"count":24576,"type":"SCALAR","min":[0],"max":[4224]},{"bufferView":5,"byteOffset":0,"componentType":5126,"count":4225,"type":"VEC3","min":[-15.55349349975586,-50.94512939453125,-15.55349349975586],"max":[15.55349349975586,50,15.55349349975586]},{"bufferView":6,"byteOffset":0,"componentType":5126,"count":4225,"type":"VEC2","min":[0,0],"max":[1,1]},{"bufferView":7,"byteOffset":0,"componentType":5126,"count":4225,"type":"VEC3","min":[-0.9999813437461853,-0.999801516532898,-0.9999813437461853],"max":[0.9999813437461853,0.4862164855003357,0.9999813437461853]},{"bufferView":8,"byteOffset":0,"componentType":5123,"count":768,"type":"SCALAR","min":[0],"max":[387]},{"bufferView":9,"byteOffset":0,"componentType":5126,"count":388,"type":"VEC3","min":[-61,-8.5,-61],"max":[61,8.5,61]},{"bufferView":10,"byteOffset":0,"componentType":5126,"count":388,"type":"VEC3","min":[-1,-1,-1],"max":[1,1,1]},{"bufferView":11,"byteOffset":0,"componentType":5126,"count":388,"type":"VEC2","min":[0,0],"max":[1,1]},{"bufferView":12,"byteOffset":0,"componentType":5123,"count":3072,"type":"SCALAR","min":[0],"max":[519]},{"bufferView":13,"byteOffset":0,"componentType":5126,"count":520,"type":"VEC3","min":[-55,-7.5,-55],"max":[55,7.5,55]},{"bufferView":14,"byteOffset":0,"componentType":5126,"count":520,"type":"VEC3","min":[-1,-1,-1],"max":[1,1,1]},{"bufferView":15,"byteOffset":0,"componentType":5126,"count":520,"type":"VEC2","min":[0,0],"max":[1,1]},{"bufferView":16,"byteOffset":0,"componentType":5123,"count":24192,"type":"SCALAR","min":[0],"max":[4224]},{"bufferView":17,"byteOffset":0,"componentType":5126,"count":4225,"type":"VEC3","min":[-50,-60,-41.5],"max":[50,60,41.5]},{"bufferView":18,"byteOffset":0,"componentType":5126,"count":4225,"type":"VEC3","min":[-1,-1,-1],"max":[1,1,1]},{"bufferView":19,"byteOffset":0,"componentType":5126,"count":4225,"type":"VEC2","min":[-0.0078125,0],"max":[1.0078125,1]},{"bufferView":20,"byteOffset":0,"componentType":5123,"count":24576,"type":"SCALAR","min":[0],"max":[4224]},{"bufferView":21,"byteOffset":0,"componentType":5126,"count":4225,"type":"VEC3","min":[-21.851806640625,-50,-21.851806640625],"max":[21.851806640625,50,21.851806640625]},{"bufferView":22,"byteOffset":0,"componentType":5126,"count":4225,"type":"VEC2","min":[0,0],"max":[1,1]},{"bufferView":23,"byteOffset":0,"componentType":5126,"count":4225,"type":"VEC3","min":[-0.999992311000824,-0.6372700333595276,-0.999992311000824],"max":[0.999992311000824,0.996419370174408,0.999992311000824]},{"bufferView":24,"byteOffset":0,"componentType":5123,"count":24576,"type":"SCALAR","min":[0],"max":[4224]},{"bufferView":25,"byteOffset":0,"componentType":5126,"count":4225,"type":"VEC3","min":[-27.177978515625,-50,-27.177978515625],"max":[27.177978515625,50,27.177978515625]},{"bufferView":26,"byteOffset":0,"componentType":5126,"count":4225,"type":"VEC2","min":[0,0],"max":[1,1]},{"bufferView":27,"byteOffset":0,"componentType":5126,"count":4225,"type":"VEC3","min":[-0.9998994469642639,-0.6408979296684265,-0.9998994469642639],"max":[0.9998994469642639,0.9921876192092896,0.9998994469642639]}],"extensions":{"KHR_lights_punctual":{"lights":[{"type":"directional","name":"Directional Light","color":[1,1,1],"intensity":1},{"type":"point","name":"Point Light","color":[1,0.6969152381674757,0.5393848604368932],"intensity":1,"range":5387},{"type":"point","name":"Point Light 2","color":[1,0.6969152381674757,0.5393848604368932],"intensity":1,"range":5387}]}},"extensionsUsed":["KHR_lights_punctual"]}